<svg width="25" height="28" viewBox="0 0 25 28" fill="none" xmlns="http://www.w3.org/2000/svg">
<path d="M12.5 1.40006L13.0417 0.716059C12.8907 0.576623 12.6986 0.5 12.5 0.5C12.3014 0.5 12.1093 0.576623 11.9583 0.716059L12.5 1.40006ZM0.833333 12.2L0.291667 11.516L0 11.786V12.2H0.833333ZM9.16667 26.6V27.5C9.38768 27.5 9.59964 27.4052 9.75592 27.2364C9.9122 27.0676 10 26.8387 10 26.6H9.16667ZM15.8333 26.6H15C15 26.8387 15.0878 27.0676 15.2441 27.2364C15.4004 27.4052 15.6123 27.5 15.8333 27.5V26.6ZM24.1667 12.2H25V11.786L24.7083 11.516L24.1667 12.2ZM2.5 27.5H9.16667V25.7H2.5V27.5ZM24.7083 11.516L13.0417 0.716059L11.9583 2.08406L23.625 12.884L24.7083 11.516ZM11.9583 0.716059L0.291667 11.516L1.375 12.884L13.0417 2.08406L11.9583 0.716059ZM10 26.6V21.2H8.33333V26.6H10ZM15 21.2V26.6H16.6667V21.2H15ZM15.8333 27.5H22.5V25.7H15.8333V27.5ZM25 24.8V12.2H23.3333V24.8H25ZM0 12.2V24.8H1.66667V12.2H0ZM12.5 18.5C13.163 18.5 13.7989 18.7845 14.2678 19.2908C14.7366 19.7972 15 20.4839 15 21.2H16.6667C16.6667 20.0065 16.2277 18.862 15.4463 18.018C14.6649 17.1741 13.6051 16.7 12.5 16.7V18.5ZM12.5 16.7C11.3949 16.7 10.3351 17.1741 9.55372 18.018C8.77232 18.862 8.33333 20.0065 8.33333 21.2H10C10 20.4839 10.2634 19.7972 10.7322 19.2908C11.2011 18.7845 11.837 18.5 12.5 18.5V16.7ZM22.5 27.5C23.163 27.5 23.7989 27.2155 24.2678 26.7092C24.7366 26.2028 25 25.5161 25 24.8H23.3333C23.3333 25.0387 23.2455 25.2676 23.0893 25.4364C22.933 25.6052 22.721 25.7 22.5 25.7V27.5ZM2.5 25.7C2.27899 25.7 2.06702 25.6052 1.91074 25.4364C1.75446 25.2676 1.66667 25.0387 1.66667 24.8H0C0 25.5161 0.263392 26.2028 0.732233 26.7092C1.20107 27.2155 1.83696 27.5 2.5 27.5V25.7Z" fill="white"/>
</svg>
