<svg width="20" height="22" viewBox="0 0 20 22" fill="none" xmlns="http://www.w3.org/2000/svg">
<g id="Group">
<path id="Vector" d="M14.755 0.999782H5.245C4.086 0.999782 3.507 0.999782 3.039 1.16278C2.59778 1.31924 2.19856 1.57529 1.87234 1.91104C1.54612 2.2468 1.30168 2.65324 1.158 3.09878C1 3.58078 1 4.17678 1 5.36978V19.3738C1 20.2318 1.985 20.6878 2.608 20.1178C2.78279 19.9563 3.01202 19.8666 3.25 19.8666C3.48798 19.8666 3.71721 19.9563 3.892 20.1178L4.375 20.5598C4.68121 20.8429 5.08293 21.0002 5.5 21.0002C5.91707 21.0002 6.31879 20.8429 6.625 20.5598C6.93121 20.2766 7.33293 20.1193 7.75 20.1193C8.16707 20.1193 8.56879 20.2766 8.875 20.5598C9.18121 20.8429 9.58293 21.0002 10 21.0002C10.4171 21.0002 10.8188 20.8429 11.125 20.5598C11.4312 20.2766 11.8329 20.1193 12.25 20.1193C12.6671 20.1193 13.0688 20.2766 13.375 20.5598C13.6812 20.8429 14.0829 21.0002 14.5 21.0002C14.9171 21.0002 15.3188 20.8429 15.625 20.5598L16.108 20.1178C16.2828 19.9563 16.512 19.8666 16.75 19.8666C16.988 19.8666 17.2172 19.9563 17.392 20.1178C18.015 20.6878 19 20.2318 19 19.3738V5.36978C19 4.17678 19 3.57978 18.842 3.09978C18.6985 2.65402 18.4542 2.24735 18.1279 1.9114C17.8017 1.57545 17.4024 1.31927 16.961 1.16278C16.493 0.999782 15.914 0.999782 14.755 0.999782Z" stroke="#400101" stroke-width="1.5"/>
<path id="Vector_2" d="M8.5 9.99978H15M5 9.99978H5.5M5 6.49978H5.5M5 13.4998H5.5M8.5 6.49978H15M8.5 13.4998H15" stroke="#400101" stroke-width="1.5" stroke-linecap="round"/>
</g>
</svg>
